<svg width="300" height="300" viewBox="0 0 300 300" fill="none" xmlns="http://www.w3.org/2000/svg">
<rect width="300" height="300" fill="#020202"/>
<path fill-rule="evenodd" clip-rule="evenodd" d="M201.107 179.527C201.107 149.007 179.165 126.433 150.451 126.433C121.737 126.433 99.7954 149.007 99.7954 179.527C99.7954 210.047 121.737 232.621 150.451 232.621C179.165 232.621 201.107 210.047 201.107 179.527ZM60.0654 179.527C59.8848 129.413 99.3439 88.6894 147.291 88.6894C167.517 88.6894 186.118 96.1839 200.927 108.916V29.7263H240.115V268.558L203.003 250.409C188.195 262.779 169.233 270.274 148.645 270.274C100.066 270.274 59.8848 229.46 59.8848 179.436L60.0654 179.527Z" fill="#14E7E8"/>
</svg>
