<svg width="300" height="300" viewBox="0 0 300 300" fill="none" xmlns="http://www.w3.org/2000/svg">
<path fill-rule="evenodd" clip-rule="evenodd" d="M201.107 179.527C201.107 149.007 179.166 126.433 150.452 126.433C121.738 126.433 99.7957 149.007 99.7957 179.527C99.7957 210.047 121.738 232.621 150.452 232.621C179.166 232.621 201.107 210.047 201.107 179.527ZM60.0656 179.527C59.885 129.413 99.3442 88.6894 147.291 88.6894C167.517 88.6894 186.118 96.1839 200.927 108.916V29.7263H240.115V268.558L203.004 250.409C188.195 262.779 169.233 270.274 148.646 270.274C100.067 270.274 59.885 229.46 59.885 179.436L60.0656 179.527Z" fill="#020202"/>
</svg>
