<svg width="1380" height="297" viewBox="0 0 1380 297" fill="none" xmlns="http://www.w3.org/2000/svg">
<path fill-rule="evenodd" clip-rule="evenodd" d="M474.826 47.7302V92.3362H523.043L505.526 129.357H474.826V263.717H435.637V47.7302H474.826ZM1309.43 47.7302V92.3362H1357.74L1340.22 129.357H1309.52V263.717H1270.33V47.7302H1309.52H1309.43ZM1202.43 263.627V170.081C1202.43 144.076 1183.83 124.843 1159.54 124.843C1135.25 124.843 1116.65 144.076 1116.65 170.081V263.627H1077.46V170.081C1077.46 124.12 1113.94 87.1893 1159.45 87.1893C1204.96 87.1893 1241.44 124.211 1241.44 170.081V263.627H1202.25H1202.43ZM687.833 92.3362H732.71L784.72 191.39L836.73 92.3362H879.621L783.727 268.774L687.833 92.3362ZM367.554 178.027C367.554 147.507 345.613 124.933 316.899 124.933C288.184 124.933 266.243 147.507 266.243 178.027C266.243 208.547 288.184 231.121 316.899 231.121C345.613 231.121 367.554 208.547 367.554 178.027ZM226.513 178.027C226.513 128.003 267.326 87.1893 316.989 87.1893C366.651 87.1893 406.743 126.919 406.743 177.304V267.058L369.631 248.909C354.823 261.279 335.861 268.774 315.273 268.774C266.694 268.774 226.513 227.96 226.513 177.936V178.027ZM1010.55 178.027C1010.55 147.507 988.608 124.933 959.894 124.933C931.179 124.933 909.238 147.507 909.238 178.027C909.238 208.547 931.179 231.121 959.894 231.121C988.608 231.121 1010.55 208.547 1010.55 178.027ZM869.508 178.027C869.508 128.003 910.321 87.1893 959.984 87.1893C1009.65 87.1893 1049.74 126.919 1049.74 177.304V267.058L1012.63 248.909C997.818 261.279 978.856 268.774 958.268 268.774C909.689 268.774 869.508 227.96 869.508 177.936V178.027ZM654.875 178.027C654.875 147.507 632.933 124.933 604.219 124.933C575.505 124.933 553.563 147.507 553.563 178.027C553.563 208.547 575.505 231.121 604.219 231.121C632.933 231.121 654.875 208.547 654.875 178.027ZM513.833 178.027C513.833 128.003 554.647 87.1893 604.309 87.1893C653.972 87.1893 694.063 126.919 694.063 177.304V267.058L656.952 248.909C642.143 261.279 623.181 268.774 602.594 268.774C554.015 268.774 513.833 227.96 513.833 177.936V178.027ZM163.486 178.027C163.486 147.507 141.544 124.933 112.83 124.933C84.1164 124.933 62.1746 147.507 62.1746 178.027C62.1746 208.547 84.1164 231.121 112.83 231.121C141.544 231.121 163.486 208.547 163.486 178.027ZM22.4445 178.027C22.2639 127.913 61.7231 87.1893 109.67 87.1893C129.896 87.1893 148.497 94.6839 163.306 107.416V28.2263H202.494V267.058L165.382 248.909C150.574 261.279 131.612 268.774 111.025 268.774C62.4455 268.774 22.2639 227.96 22.2639 177.936L22.4445 178.027Z" fill="#020202"/>
</svg>
